<svg width="27" height="36" viewBox="0 0 27 36" fill="none" xmlns="http://www.w3.org/2000/svg">
<path d="M24.375 4.32861C25.3711 4.32861 26.25 5.20752 26.25 6.26221V28.7036C26.25 29.7583 25.3711 30.5786 24.375 30.5786H1.81641C0.820312 30.5786 0 29.7583 0 28.7036V6.26221C0 5.20752 0.820312 4.32861 1.81641 4.32861H24.375ZM7.91016 26.8286V14.3481H4.04297V26.8286H7.91016ZM5.97656 12.5903C7.20703 12.5903 8.20312 11.5942 8.20312 10.3638C8.20312 9.1333 7.20703 8.07861 5.97656 8.07861C4.6875 8.07861 3.69141 9.1333 3.69141 10.3638C3.69141 11.5942 4.6875 12.5903 5.97656 12.5903ZM22.5 26.8286V19.9731C22.5 16.6333 21.7383 13.9966 17.8125 13.9966C15.9375 13.9966 14.6484 15.0513 14.1211 16.0474H14.0625V14.3481H10.3711V26.8286H14.2383V20.6763C14.2383 19.0356 14.5312 17.4536 16.582 17.4536C18.5742 17.4536 18.5742 19.3286 18.5742 20.7349V26.8286H22.5Z" fill="#8C8B99"/>
</svg>
