<svg width="30" height="36" viewBox="0 0 30 36" fill="none" xmlns="http://www.w3.org/2000/svg">
<path d="M26.8945 11.3599C26.8945 11.6528 26.8945 11.8872 26.8945 12.1802C26.8945 20.3247 20.7422 29.6411 9.43359 29.6411C5.91797 29.6411 2.69531 28.645 0 26.8872C0.46875 26.9458 0.9375 27.0044 1.46484 27.0044C4.33594 27.0044 6.97266 26.0083 9.08203 24.3677C6.38672 24.3091 4.10156 22.5513 3.33984 20.0903C3.75 20.1489 4.10156 20.2075 4.51172 20.2075C5.03906 20.2075 5.625 20.0903 6.09375 19.9731C3.28125 19.3872 1.17188 16.9263 1.17188 13.938V13.8794C1.99219 14.3481 2.98828 14.5825 3.98438 14.6411C2.28516 13.5278 1.23047 11.6528 1.23047 9.54346C1.23047 8.37158 1.52344 7.31689 2.05078 6.43799C5.09766 10.1294 9.66797 12.5903 14.7656 12.8833C14.6484 12.4146 14.5898 11.9458 14.5898 11.4771C14.5898 8.07861 17.3438 5.32471 20.7422 5.32471C22.5 5.32471 24.082 6.02783 25.2539 7.2583C26.6016 6.96533 27.9492 6.43799 29.1211 5.73486C28.6523 7.19971 27.7148 8.37158 26.4258 9.1333C27.6562 9.01611 28.8867 8.66455 29.9414 8.1958C29.1211 9.42627 28.0664 10.481 26.8945 11.3599Z" fill="#8C8B99"/>
</svg>
