<svg width="28" height="36" viewBox="0 0 28 36" fill="none" xmlns="http://www.w3.org/2000/svg">
<path d="M14.125 10.7153C17.8164 10.7153 20.8633 13.7622 20.8633 17.4536C20.8633 21.2036 17.8164 24.1919 14.125 24.1919C10.375 24.1919 7.38672 21.2036 7.38672 17.4536C7.38672 13.7622 10.375 10.7153 14.125 10.7153ZM14.125 21.8481C16.5273 21.8481 18.4609 19.9146 18.4609 17.4536C18.4609 15.0513 16.5273 13.1177 14.125 13.1177C11.6641 13.1177 9.73047 15.0513 9.73047 17.4536C9.73047 19.9146 11.7227 21.8481 14.125 21.8481ZM22.6797 10.481C22.6797 11.3599 21.9766 12.063 21.0977 12.063C20.2188 12.063 19.5156 11.3599 19.5156 10.481C19.5156 9.60205 20.2188 8.89893 21.0977 8.89893C21.9766 8.89893 22.6797 9.60205 22.6797 10.481ZM27.1328 12.063C27.25 14.231 27.25 20.7349 27.1328 22.9028C27.0156 25.0122 26.5469 26.8286 25.0234 28.4106C23.5 29.9341 21.625 30.4028 19.5156 30.52C17.3477 30.6372 10.8438 30.6372 8.67578 30.52C6.56641 30.4028 4.75 29.9341 3.16797 28.4106C1.64453 26.8286 1.17578 25.0122 1.05859 22.9028C0.941406 20.7349 0.941406 14.231 1.05859 12.063C1.17578 9.95361 1.64453 8.07861 3.16797 6.55518C4.75 5.03174 6.56641 4.56299 8.67578 4.4458C10.8438 4.32861 17.3477 4.32861 19.5156 4.4458C21.625 4.56299 23.5 5.03174 25.0234 6.55518C26.5469 8.07861 27.0156 9.95361 27.1328 12.063ZM24.3203 25.188C25.0234 23.4888 24.8477 19.3872 24.8477 17.4536C24.8477 15.5786 25.0234 11.4771 24.3203 9.71924C23.8516 8.60596 22.9727 7.66846 21.8594 7.2583C20.1016 6.55518 16 6.73096 14.125 6.73096C12.1914 6.73096 8.08984 6.55518 6.39062 7.2583C5.21875 7.72705 4.33984 8.60596 3.87109 9.71924C3.16797 11.4771 3.34375 15.5786 3.34375 17.4536C3.34375 19.3872 3.16797 23.4888 3.87109 25.188C4.33984 26.3599 5.21875 27.2388 6.39062 27.7075C8.08984 28.4106 12.1914 28.2349 14.125 28.2349C16 28.2349 20.1016 28.4106 21.8594 27.7075C22.9727 27.2388 23.9102 26.3599 24.3203 25.188Z" fill="#8C8B99"/>
</svg>
