<svg width="30" height="36" viewBox="0 0 30 36" fill="none" xmlns="http://www.w3.org/2000/svg">
<path d="M29.0625 17.4536C29.0625 25.481 22.5586 31.9849 14.5312 31.9849C13.0078 31.9849 11.543 31.8091 10.1953 31.3403C10.7812 30.4028 11.6602 28.8208 12.0117 27.5317C12.1875 26.8872 12.8906 24.0747 12.8906 24.0747C13.3594 25.0122 14.7656 25.7739 16.2305 25.7739C20.625 25.7739 23.7891 21.731 23.7891 16.7505C23.7891 11.9458 19.8633 8.31299 14.8242 8.31299C8.55469 8.31299 5.21484 12.5317 5.21484 17.1021C5.21484 19.27 6.32812 21.9067 8.14453 22.7856C8.4375 22.9028 8.61328 22.8442 8.67188 22.5513C8.67188 22.3755 8.96484 21.3794 9.08203 20.9106C9.08203 20.7935 9.08203 20.6177 8.96484 20.5005C8.37891 19.7974 7.91016 18.4497 7.91016 17.1606C7.91016 13.9966 10.3125 10.8911 14.4727 10.8911C17.9883 10.8911 20.5078 13.2935 20.5078 16.8091C20.5078 20.7349 18.5156 23.4302 15.9375 23.4302C14.5312 23.4302 13.4766 22.2583 13.7695 20.8521C14.1797 19.0942 15 17.2192 15 15.9888C15 14.8755 14.4141 13.938 13.1836 13.938C11.7188 13.938 10.5469 15.4614 10.5469 17.4536C10.5469 18.7427 10.957 19.6216 10.957 19.6216C10.957 19.6216 9.55078 25.7153 9.25781 26.8286C8.96484 28.1177 9.08203 29.8755 9.19922 30.9888C3.80859 28.8794 0 23.6646 0 17.4536C0 9.42627 6.50391 2.92236 14.5312 2.92236C22.5586 2.92236 29.0625 9.42627 29.0625 17.4536Z" fill="#8C8B99"/>
</svg>
